<svg width="93" height="93" viewBox="0 0 93 93" fill="none" xmlns="http://www.w3.org/2000/svg">
<path d="M88.8324 56.871L85.1982 56.0223C85.0064 55.0938 84.7608 54.1754 84.4629 53.2745L87.1701 50.7359C87.6234 50.3115 87.7571 49.6446 87.5014 49.0764C86.7109 47.3297 85.7373 45.6485 84.6053 44.0762C84.242 43.572 83.6012 43.354 83.0025 43.5356L79.4801 44.6051C78.8451 43.8931 78.1694 43.2159 77.4545 42.5809L78.5269 39.06C78.7071 38.4657 78.4905 37.8219 77.9863 37.4587C77.2045 36.8948 76.3951 36.3703 75.5625 35.8878V10.1719C75.5625 6.16561 72.3031 2.90625 68.2969 2.90625H10.1719C6.16561 2.90625 2.90625 6.16561 2.90625 10.1719V47.9531C2.90625 51.9594 6.16561 55.2188 10.1719 55.2188H25.5358L20.7797 68.2969H13.0781C12.2745 68.2969 11.625 68.9479 11.625 69.75C11.625 73.7563 14.8844 77.0156 18.8906 77.0156H36.8295C37.0416 77.3368 37.232 77.6724 37.4572 77.9849C37.8205 78.4891 38.4584 78.7071 39.06 78.5254L42.5824 77.4559C43.2174 78.168 43.8931 78.8451 44.608 79.4801L43.5356 83.001C43.3554 83.5954 43.572 84.2391 44.0762 84.6024C45.6456 85.7344 47.3283 86.7094 49.0778 87.4999C49.646 87.7571 50.3115 87.6249 50.7373 87.1686L53.2745 84.46C54.1725 84.7579 55.0923 85.0035 56.0238 85.1953L56.8724 88.831C57.0148 89.4369 57.5249 89.8859 58.1453 89.947C59.1247 90.0443 60.0969 90.0938 61.0312 90.0938C61.9656 90.0938 62.9377 90.0443 63.9186 89.9484C64.5391 89.8874 65.0491 89.4384 65.1915 88.8324L66.0402 85.1967C66.9716 85.0049 67.89 84.7593 68.7895 84.4614L71.3266 87.1701C71.7539 87.6249 72.4208 87.7586 72.9861 87.5014C74.7299 86.7123 76.4126 85.7373 77.9849 84.6038C78.4905 84.2406 78.7071 83.5968 78.5269 83.001L77.4559 79.4787C78.1694 78.8437 78.8466 78.1665 79.4816 77.4545L83.004 78.5254C83.5954 78.7071 84.2435 78.4891 84.6068 77.9849C85.7373 76.414 86.7123 74.7328 87.5028 72.9847C87.76 72.4179 87.6263 71.751 87.1715 71.3252L84.4643 68.7866C84.7622 67.8856 85.0078 66.9673 85.1996 66.0373L88.8339 65.1886C89.4398 65.0477 89.8889 64.5362 89.9499 63.9172C90.0443 62.9407 90.0938 61.9685 90.0938 61.0312C90.0938 60.094 90.0443 59.1218 89.947 58.1424C89.8859 57.5234 89.4384 57.0119 88.8324 56.871ZM10.1719 5.8125H68.2969C70.7003 5.8125 72.6562 7.76841 72.6562 10.1719V34.4696C72.1767 34.378 71.6739 34.5219 71.3266 34.891L68.7895 37.5996C67.8915 37.3017 66.9716 37.0561 66.0402 36.8643L65.1915 33.2286C65.0491 32.6227 64.5391 32.1736 63.9186 32.1126C61.954 31.9193 60.1071 31.9193 58.1424 32.1126C57.522 32.1736 57.0119 32.6227 56.8695 33.2286L56.0209 36.8643C55.0894 37.0561 54.171 37.3017 53.2716 37.5996L50.7344 34.891C50.3086 34.4376 49.6431 34.3039 49.0749 34.5597C47.3312 35.3487 45.6485 36.3238 44.0762 37.4572C43.5705 37.8205 43.354 38.4642 43.5342 39.06L44.0311 40.6875H14.5312V23.25H29.0625V20.3438H14.5312V11.625H63.9375V29.0625H66.8438V10.1719C66.8438 9.36975 66.1942 8.71875 65.3906 8.71875H13.0781C12.2745 8.71875 11.625 9.36975 11.625 10.1719V40.6875H5.8125V10.1719C5.8125 7.76841 7.76841 5.8125 10.1719 5.8125ZM43.5938 43.5938C43.2566 43.9309 42.8977 44.2491 42.5809 44.6051L39.2518 43.5938H43.5938ZM5.8125 47.9531V43.5938H38.085C37.8408 43.694 37.62 43.851 37.4572 44.0762C36.3267 45.647 35.3516 47.3283 34.5611 49.0764C34.3039 49.6431 34.4376 50.3101 34.8924 50.7359L36.5752 52.3125H10.1719C7.76841 52.3125 5.8125 50.3566 5.8125 47.9531ZM28.6266 55.2188H37.0547C36.9893 55.4861 36.9195 55.752 36.8643 56.0223L33.2301 56.871C32.6241 57.0119 32.1751 57.5234 32.1141 58.1424C32.0182 59.1218 31.9688 60.094 31.9688 61.0312C31.9688 61.9685 32.0182 62.9392 32.1155 63.9201C32.1765 64.5391 32.6256 65.0506 33.2315 65.1915L36.8658 66.0402C37.0227 66.8031 37.2407 67.5514 37.4688 68.2969H23.8719L28.6266 55.2188ZM18.8906 74.1094C16.9958 74.1094 15.3799 72.8946 14.7797 71.2031H35.0232L34.891 71.3266C34.4376 71.751 34.3039 72.4179 34.5597 72.9861C34.7326 73.3683 34.9477 73.7345 35.138 74.1094H18.8906ZM87.1381 62.6035L83.6114 63.4275C83.0388 63.5611 82.6043 64.0261 82.5084 64.6059C82.2788 65.9966 81.9112 67.3712 81.4157 68.6907C81.2093 69.24 81.3547 69.8604 81.7833 70.2615L84.4077 72.7216C83.9412 73.6545 83.4123 74.5642 82.8339 75.439L79.4176 74.4C78.8538 74.2271 78.245 74.4131 77.873 74.8665C76.9749 75.9592 75.9636 76.9706 74.8665 77.873C74.4131 78.2464 74.23 78.8553 74.4 79.4176L75.439 82.8339C74.5613 83.4137 73.6531 83.9412 72.7216 84.4091L70.263 81.7833C69.8619 81.3547 69.237 81.2093 68.6921 81.4171C67.377 81.9112 66.0024 82.2788 64.6059 82.5099C64.0261 82.6058 63.5611 83.0403 63.4275 83.6128L62.605 87.1395C61.5355 87.2049 60.5299 87.2049 59.4604 87.1395L58.638 83.6128C58.5043 83.0403 58.0407 82.6058 57.4595 82.5099C56.063 82.2788 54.6898 81.9098 53.3733 81.4171C52.8255 81.2108 52.2021 81.3547 51.8025 81.7833L49.3438 84.4091C48.4094 83.9412 47.4997 83.4137 46.625 82.8339L47.6654 79.4191C47.8354 78.8567 47.6509 78.2479 47.199 77.8744C46.1033 76.9735 45.0919 75.9621 44.1924 74.8679C43.819 74.4145 43.2087 74.23 42.6478 74.4015L39.2315 75.439C38.6517 74.5628 38.1242 73.6545 37.6563 72.7216L40.2821 70.2615C40.7108 69.8604 40.8561 69.24 40.6497 68.6907C40.1542 67.3698 39.7866 65.9951 39.557 64.6045C39.4625 64.0247 39.0266 63.5597 38.454 63.426L34.9273 62.6021C34.8924 62.0702 34.875 61.5442 34.875 61.0312C34.875 60.5183 34.8924 59.9923 34.9244 59.459L38.4511 58.635C39.0237 58.5014 39.4582 58.0364 39.5541 57.4566C39.7837 56.0645 40.1513 54.6898 40.6468 53.3718C40.8546 52.8225 40.7093 52.2021 40.2806 51.7995L37.6548 49.3394C38.1213 48.4065 38.6502 47.4983 39.2286 46.6221L42.6449 47.6596C43.2072 47.8296 43.8175 47.6451 44.1895 47.1931C45.089 46.1004 46.0989 45.089 47.196 44.1866C47.6494 43.8132 47.8325 43.2043 47.6625 42.642L46.6235 39.2257C47.5012 38.6459 48.4094 38.1184 49.3409 37.6505L51.7995 40.2763C52.1992 40.7049 52.8225 40.8488 53.3704 40.6425C54.6855 40.1484 56.0601 39.7808 57.4566 39.5497C58.0364 39.4538 58.5014 39.0193 58.635 38.4468L59.4575 34.92C60.527 34.8547 61.5326 34.8547 62.6021 34.92L63.4245 38.4468C63.5582 39.0193 64.0218 39.4538 64.603 39.5497C65.9995 39.7808 67.3727 40.1498 68.6892 40.6425C69.2341 40.8488 69.859 40.7035 70.26 40.2763L72.7187 37.6505C73.6531 38.1184 74.5628 38.6459 75.4375 39.2257L74.3971 42.6405C74.2271 43.2029 74.4116 43.8117 74.8635 44.1852C75.9592 45.0861 76.9706 46.0975 77.8701 47.1917C78.2435 47.6451 78.8524 47.8311 79.4147 47.6581L82.831 46.6206C83.4108 47.4968 83.9383 48.405 84.4062 49.338L81.7804 51.7981C81.3517 52.1992 81.2064 52.8196 81.4128 53.3689C81.9083 54.6898 82.2759 56.0645 82.5055 57.4551C82.6 58.0349 83.0359 58.4999 83.6085 58.6336L87.1352 59.4575C87.1701 59.9923 87.1875 60.5183 87.1875 61.0312C87.1875 61.5442 87.1701 62.0702 87.1381 62.6035Z" fill="white"/>
<path d="M71.2031 61.0312C71.2031 55.4222 66.6389 50.8594 61.0312 50.8594C55.4236 50.8594 50.8594 55.4222 50.8594 61.0312C50.8594 66.6403 55.4236 71.2031 61.0312 71.2031C66.6389 71.2031 71.2031 66.6403 71.2031 61.0312ZM61.0312 68.2969C57.025 68.2969 53.7656 65.0375 53.7656 61.0312C53.7656 57.025 57.025 53.7656 61.0312 53.7656C65.0375 53.7656 68.2969 57.025 68.2969 61.0312C68.2969 65.0375 65.0375 68.2969 61.0312 68.2969Z" fill="white"/>
<path d="M49.2538 52.5188L46.9012 50.8143C46.2894 51.6571 45.7517 52.561 45.3013 53.4997L47.9213 54.7567C48.2962 53.9749 48.7452 53.2207 49.2538 52.5188Z" fill="white"/>
<path d="M60.3353 46.5174L60.1987 43.614C59.1568 43.6634 58.1149 43.8058 57.1021 44.0383L57.7545 46.8705C58.6002 46.6772 59.4677 46.558 60.3353 46.5174Z" fill="white"/>
<path d="M71.8585 47.3617L70.0508 49.6373C70.7308 50.1764 71.3673 50.7809 71.9427 51.4334L74.1224 49.5123C73.4336 48.732 72.6722 48.0083 71.8585 47.3617Z" fill="white"/>
<path d="M47.0289 64.9271L44.2273 65.7002C44.5019 66.6999 44.8739 67.6837 45.3302 68.6253L47.9473 67.3597C47.5666 66.575 47.2585 65.7554 47.0289 64.9271Z" fill="white"/>
<path d="M54.1114 48.2495L52.7237 45.6949C51.8111 46.1905 50.9378 46.7732 50.124 47.4242L51.9433 49.691C52.6205 49.1476 53.35 48.6622 54.1114 48.2495Z" fill="white"/>
<path d="M75.3315 63.6265L78.1927 64.1424C78.3758 63.1252 78.4688 62.0789 78.4688 61.0312V60.9688L75.5626 61.0312C75.5626 61.906 75.4841 62.7793 75.3315 63.6265Z" fill="white"/>
<path d="M61.6982 75.548L61.829 78.4513C62.8724 78.4034 63.9142 78.2639 64.9271 78.0328L64.2804 75.1992C63.4362 75.391 62.5687 75.5087 61.6982 75.548Z" fill="white"/>
<path d="M72.793 69.5684L75.1427 71.2787C75.7544 70.4374 76.295 69.535 76.7469 68.5963L74.1298 67.335C73.752 68.1153 73.3016 68.868 72.793 69.5684Z" fill="white"/>
<path d="M75.0263 57.1093L77.8279 56.3319C77.5503 55.3307 77.1754 54.3469 76.7162 53.4067L74.105 54.6797C74.4857 55.4615 74.7967 56.2781 75.0263 57.1093Z" fill="white"/>
<path d="M67.9263 73.8261L69.3053 76.3836C70.2193 75.8909 71.0955 75.3111 71.9107 74.6587L70.0972 72.3889C69.4172 72.9309 68.6877 73.4148 67.9263 73.8261Z" fill="white"/>
<path d="M54.1943 77.078C55.1534 77.4878 56.1561 77.8104 57.1718 78.04L57.8097 75.205C56.9654 75.0146 56.1328 74.7458 55.335 74.4043L54.1943 77.078Z" fill="white"/>
<path d="M50.1022 70.6074L47.9167 72.5226C48.6041 73.3059 49.3641 74.031 50.1793 74.6791L51.9869 72.4049C51.3083 71.8658 50.6733 71.2613 50.1022 70.6074Z" fill="white"/>
<path d="M67.8361 44.9713C66.8799 44.5644 65.8773 44.2433 64.8572 44.0151L64.2207 46.8502C65.0693 47.0405 65.9034 47.3079 66.6968 47.6465L67.8361 44.9713Z" fill="white"/>
<path d="M46.7252 58.465L43.864 57.955C43.6838 58.9634 43.5938 59.9981 43.5938 61.0312V61.0632L46.5 61.0312C46.5 60.1695 46.577 59.3049 46.7252 58.465Z" fill="white"/>
<path d="M54.793 16.4102L52.7383 18.4649L56.0703 21.7969H37.7812C33.775 21.7969 30.5156 25.0562 30.5156 29.0625V37.7813H33.4219V29.0625C33.4219 26.659 35.3778 24.7031 37.7812 24.7031H56.0703L52.7383 28.0352L54.793 30.0899L60.6055 24.2774C61.1736 23.7092 61.1736 22.7908 60.6055 22.2227L54.793 16.4102Z" fill="white"/>
<path d="M17.4375 14.5312H20.3438V17.4375H17.4375V14.5312Z" fill="white"/>
<path d="M23.25 14.5312H26.1562V17.4375H23.25V14.5312Z" fill="white"/>
<path d="M29.0625 14.5312H31.9688V17.4375H29.0625V14.5312Z" fill="white"/>
</svg>
