<svg width="320" height="293" viewBox="0 0 320 293" fill="none" xmlns="http://www.w3.org/2000/svg">
<g filter="url(#filter0_d)">
<g clip-path="url(#clip0)">
<path d="M117.174 57.0086C117.314 57.0339 117.44 57.0718 117.567 57.1224C118.885 57.5018 120.291 58.0457 121.748 58.754C123.079 59.3863 124.422 60.1326 125.727 60.9547H194.273C195.578 60.1326 196.921 59.3863 198.251 58.754C199.772 58.0204 201.254 57.4512 202.623 57.0718L203.256 59.3484L203.104 58.8172L202.623 57.0718V57.0592C202.686 57.0465 202.749 57.0212 202.813 57.0086C207.931 55.6553 213.164 56.4774 217.459 58.9184C221.818 61.3847 225.239 65.5078 226.671 70.6807L242.344 127.342L240.063 127.975L241.115 127.684L242.344 127.342C242.357 127.406 242.382 127.469 242.395 127.532C243.75 132.654 242.927 137.865 240.481 142.153C238.011 146.504 233.88 149.919 228.698 151.348L228.064 149.071L228.508 150.652L228.698 151.348V151.36C228.635 151.373 228.571 151.398 228.508 151.411C223.554 152.726 218.841 151.892 214.799 149.602C210.465 147.149 206.93 143.013 204.751 138.055L197.618 121.853C197.453 121.879 197.288 121.904 197.124 121.929C196.249 122.043 195.401 122.106 194.577 122.106C190.193 122.106 186.139 120.652 182.87 118.211C180.006 116.061 177.738 113.152 176.395 109.775H143.592C142.249 113.152 139.981 116.061 137.117 118.211C133.848 120.652 129.781 122.106 125.41 122.106C124.587 122.106 123.738 122.043 122.863 121.929C122.699 121.904 122.534 121.879 122.382 121.853L115.249 138.055C113.069 143.013 109.534 147.149 105.201 149.602C101.109 151.917 96.3192 152.739 91.3017 151.36C86.1196 149.931 81.9891 146.516 79.5184 142.166C77.0477 137.815 76.2241 132.528 77.6559 127.342L93.329 70.6807C94.7607 65.5078 98.1817 61.3847 102.54 58.9184C106.823 56.4774 112.043 55.6553 117.174 57.0086ZM119.708 63.0036C118.505 62.4218 117.352 61.9665 116.275 61.6629C116.224 61.6503 116.161 61.6376 116.11 61.625V61.6123L116.592 59.867L116.744 59.3358L116.11 61.6123C112.182 60.5246 108.166 61.157 104.859 63.0289C101.552 64.9007 98.9546 68.0247 97.8776 71.9455L82.2045 128.607C81.1149 132.528 81.7484 136.537 83.6236 139.838C85.4988 143.139 88.6283 145.732 92.5561 146.807C96.2685 147.832 99.8161 147.225 102.857 145.492C106.291 143.544 109.116 140.205 110.903 136.145L118.758 118.312C119.176 117.186 120.405 116.541 121.584 116.858C122.217 117.022 122.851 117.148 123.472 117.237C124.067 117.313 124.701 117.351 125.397 117.351C128.73 117.351 131.809 116.263 134.267 114.417C136.75 112.557 138.638 109.939 139.563 106.904C139.778 105.829 140.741 105.007 141.881 105.007H178.03C179.069 104.981 180.044 105.664 180.348 106.714L178.068 107.384L180.336 106.727C181.248 109.838 183.148 112.519 185.695 114.417C188.166 116.263 191.232 117.351 194.564 117.351C195.261 117.351 195.907 117.313 196.49 117.237C197.073 117.161 197.656 117.047 198.239 116.895C199.392 116.503 200.671 117.06 201.166 118.186L209.072 136.133C210.858 140.18 213.684 143.532 217.117 145.479C220.12 147.174 223.592 147.794 227.254 146.833C227.368 146.795 227.482 146.757 227.596 146.744C231.447 145.631 234.514 143.076 236.363 139.813C238.213 136.563 238.847 132.617 237.821 128.759C237.783 128.645 237.745 128.531 237.719 128.405L222.097 71.9329C221.007 68.0121 218.422 64.8881 215.115 63.0162C211.859 61.1697 207.906 60.5373 204.042 61.5617C203.928 61.5997 203.814 61.6376 203.7 61.6503C202.635 61.9538 201.47 62.4091 200.279 62.9909C199.024 63.598 197.694 64.3442 196.338 65.2296C195.945 65.5078 195.464 65.6722 194.957 65.6722H125.043C124.599 65.6722 124.143 65.5458 123.738 65.2802L125.043 63.2945L123.75 65.2802C122.357 64.3948 120.988 63.6107 119.708 63.0036Z" fill="white"/>
<path d="M126.69 97.0133C129.021 97.0133 131.137 97.9618 132.658 99.4796C134.191 101.01 135.128 103.109 135.128 105.437C135.128 107.764 134.178 109.876 132.658 111.394C131.124 112.924 129.021 113.86 126.69 113.86C124.359 113.86 122.243 112.911 120.722 111.394C119.189 109.863 118.251 107.764 118.251 105.437C118.251 103.109 119.202 100.997 120.722 99.4796C122.243 97.9492 124.359 97.0133 126.69 97.0133ZM129.3 102.831C128.628 102.161 127.703 101.756 126.69 101.756C125.664 101.756 124.739 102.174 124.08 102.831C123.408 103.502 123.003 104.425 123.003 105.437C123.003 106.461 123.421 107.384 124.08 108.042C124.751 108.712 125.676 109.117 126.69 109.117C127.716 109.117 128.641 108.7 129.3 108.042C129.971 107.372 130.377 106.448 130.377 105.437C130.39 104.412 129.971 103.502 129.3 102.831Z" fill="white"/>
<path d="M193.31 97.0133C195.641 97.0133 197.757 97.9618 199.278 99.4796C200.811 101.01 201.748 103.109 201.748 105.437C201.748 107.764 200.798 109.876 199.278 111.394C197.745 112.924 195.641 113.86 193.31 113.86C190.979 113.86 188.863 112.911 187.342 111.394C185.809 109.863 184.872 107.764 184.872 105.437C184.872 103.109 185.822 100.997 187.342 99.4796C188.875 97.9492 190.979 97.0133 193.31 97.0133ZM195.933 102.831C195.261 102.161 194.336 101.756 193.323 101.756C192.296 101.756 191.371 102.174 190.713 102.831C190.041 103.502 189.636 104.425 189.636 105.437C189.636 106.461 190.054 107.384 190.713 108.042C191.384 108.712 192.309 109.117 193.323 109.117C194.349 109.117 195.274 108.7 195.933 108.042C196.604 107.372 197.01 106.448 197.01 105.437C197.01 104.412 196.604 103.502 195.933 102.831Z" fill="white"/>
<path d="M202.192 68.8089C203.345 67.6579 204.853 67.0888 206.36 67.0888C207.868 67.0888 209.376 67.6579 210.529 68.8089C211.682 69.9598 212.252 71.4649 212.252 72.97C212.252 74.4751 211.669 75.9801 210.529 77.1311C209.376 78.282 207.868 78.8512 206.36 78.8512C204.853 78.8512 203.345 78.282 202.192 77.1311C201.039 75.9801 200.469 74.4751 200.469 72.97C200.469 71.4649 201.052 69.9598 202.192 68.8089ZM206.36 71.8317C206.069 71.8317 205.778 71.9455 205.55 72.1605C205.321 72.3882 205.22 72.6791 205.22 72.97C205.22 73.2609 205.334 73.5518 205.55 73.7794C205.778 74.0071 206.069 74.1083 206.36 74.1083C206.652 74.1083 206.943 73.9944 207.171 73.7794C207.399 73.5518 207.501 73.2609 207.501 72.97C207.501 72.6791 207.387 72.3882 207.171 72.1605C206.943 71.9455 206.652 71.8317 206.36 71.8317Z" fill="white"/>
<path d="M210.313 76.9161C210.364 76.8655 210.427 76.8149 210.478 76.7643C211.606 75.7145 213.038 75.196 214.469 75.196C215.964 75.196 217.472 75.7651 218.625 76.9161L216.953 78.5856L218.625 76.9161L218.65 76.9414C219.778 78.0796 220.348 79.5721 220.348 81.0645C220.348 82.5696 219.778 84.0747 218.625 85.2256C217.472 86.3765 215.964 86.9457 214.457 86.9457C212.949 86.9457 211.441 86.3765 210.288 85.2256C209.135 84.0747 208.565 82.5696 208.565 81.0645C208.59 79.5721 209.173 78.067 210.313 76.9161ZM213.671 80.2677C213.443 80.4954 213.342 80.7863 213.342 81.0771C213.342 81.368 213.456 81.6589 213.671 81.8866C213.899 82.1143 214.191 82.2154 214.482 82.2154C214.773 82.2154 215.065 82.1016 215.293 81.8866C215.521 81.6589 215.622 81.368 215.622 81.0771C215.622 80.7863 215.508 80.4954 215.293 80.2803V80.2677C215.077 80.0527 214.773 79.9389 214.482 79.9389C214.216 79.9389 213.95 80.0274 213.747 80.2045C213.722 80.2298 213.696 80.2424 213.671 80.2677Z" fill="white"/>
<path d="M194.108 76.8907C195.261 75.7398 196.769 75.1707 198.277 75.1707C199.784 75.1707 201.292 75.7398 202.445 76.8907C203.598 78.0417 204.168 79.5468 204.168 81.0518C204.168 82.5569 203.598 84.062 202.445 85.2129C201.292 86.3639 199.784 86.933 198.277 86.933C196.769 86.933 195.261 86.3639 194.108 85.2129C192.955 84.062 192.385 82.5569 192.385 81.0518C192.385 79.5341 192.955 78.0417 194.108 76.8907ZM198.277 79.9009C197.985 79.9009 197.694 80.0147 197.466 80.2297C197.238 80.4574 197.136 80.7483 197.136 81.0392C197.136 81.3301 197.25 81.621 197.466 81.8486C197.694 82.0763 197.985 82.1775 198.277 82.1775C198.568 82.1775 198.86 82.0637 199.088 81.8486C199.316 81.621 199.417 81.3301 199.417 81.0392C199.417 80.7483 199.303 80.4574 199.088 80.2297C198.86 80.0147 198.568 79.9009 198.277 79.9009Z" fill="white"/>
<path d="M202.255 84.96C203.408 83.8343 204.891 83.2652 206.386 83.2652C207.894 83.2652 209.401 83.8343 210.554 84.9853C211.707 86.1362 212.277 87.6413 212.277 89.1464C212.277 90.6515 211.707 92.1565 210.554 93.3075C209.401 94.4584 207.894 95.0276 206.386 95.0276C204.878 95.0276 203.37 94.4584 202.217 93.3075C202.167 93.2569 202.116 93.1936 202.065 93.1431C201.014 92.0174 200.494 90.5882 200.494 89.159C200.494 87.6666 201.064 86.1615 202.217 85.0106L203.89 86.6801L202.205 85.0106L202.255 84.96ZM206.398 88.0081C206.107 88.0081 205.816 88.1219 205.6 88.3369L205.588 88.3496C205.372 88.5646 205.258 88.8681 205.258 89.159C205.258 89.4246 205.347 89.6902 205.524 89.8926C205.55 89.9179 205.575 89.9305 205.588 89.9558C205.816 90.1835 206.107 90.2847 206.398 90.2847C206.69 90.2847 206.981 90.1708 207.209 89.9558C207.437 89.7282 207.539 89.4373 207.539 89.1464C207.539 88.8555 207.425 88.5646 207.209 88.3369C206.981 88.1219 206.69 88.0081 206.398 88.0081Z" fill="white"/>
<path d="M152.917 88.1978H168.717C170.035 88.1978 171.086 89.2602 171.086 90.5629V95.8244C171.086 97.1271 170.022 98.1895 168.717 98.1895H152.917C151.612 98.1895 150.548 97.1271 150.548 95.8244V90.5629C150.535 89.2602 151.6 88.1978 152.917 88.1978ZM166.335 92.9407H155.287V93.4593H166.335V92.9407Z" fill="white"/>
<path d="M152.917 74.8039H168.717C170.035 74.8039 171.086 75.8663 171.086 77.169V82.4305C171.086 83.7332 170.022 84.7956 168.717 84.7956H152.917C151.612 84.7956 150.548 83.7332 150.548 82.4305V77.169C150.535 75.8537 151.6 74.8039 152.917 74.8039ZM166.335 79.5341H155.287V80.0527H166.335V79.5341Z" fill="white"/>
<path d="M101.362 78.8006H109.129V71.0475C109.129 69.7448 110.193 68.6824 111.498 68.6824H117.289C118.606 68.6824 119.658 69.7448 119.658 71.0475V78.8006H127.425C128.73 78.8006 129.794 79.863 129.794 81.1657V86.9331C129.794 88.2358 128.73 89.2982 127.425 89.2982H119.658V97.0512C119.658 98.3539 118.594 99.4163 117.289 99.4163H111.511C110.206 99.4163 109.142 98.3539 109.142 97.0512V89.2982H101.375C100.07 89.2982 99.0055 88.2358 99.0055 86.9331V81.1657C98.9928 79.863 100.057 78.8006 101.362 78.8006ZM111.511 83.5435H103.744V84.5679H111.511C112.816 84.5679 113.88 85.6303 113.88 86.9331V94.6861H114.907V86.9331C114.907 85.6303 115.971 84.5679 117.276 84.5679H125.043V83.5435H117.289C115.984 83.5435 114.919 82.4811 114.919 81.1784V73.4253H113.893V81.1784C113.88 82.4811 112.829 83.5435 111.511 83.5435Z" fill="white"/>
<path d="M60.3231 36.0007H259.677C262.3 36.0007 264.428 38.1255 264.428 40.7436V168.245C264.428 170.863 262.3 172.988 259.677 172.988H60.3231C57.7004 172.988 55.5718 170.863 55.5718 168.245V40.7436C55.5718 38.1255 57.7004 36.0007 60.3231 36.0007ZM254.938 45.4739H65.0745V163.502H254.938V45.4739Z" fill="white"/>
<path d="M269.509 239.528L256.522 172.988H63.4778L50.5035 239.528H269.509ZM260.424 168.245L265.074 167.36L279.848 243.069C279.316 241.033 279.3 241.161 279.723 242.429L279.898 243.385L279.835 243.069C279.936 243.448 279.987 243.853 279.987 244.27C279.987 246.889 277.859 249.013 275.236 249.013H44.8272C44.5105 249.013 44.181 248.988 43.8389 248.925C41.2669 248.419 39.5817 245.94 40.0885 243.373H40.1012L54.8747 167.638C55.1788 165.311 57.1681 163.515 59.5754 163.515H260.336C262.591 163.477 264.618 165.058 265.074 167.347L260.424 168.245Z" fill="white"/>
<path d="M197.77 241.893L191.359 209.059H128.641L122.23 241.893H197.77ZM193.31 206.694L195.642 206.251L202.94 243.663C202.674 242.639 201.749 241.893 200.646 241.893V244.258L202.978 243.815L202.952 243.663C203.003 243.853 203.028 244.055 203.028 244.258C203.028 245.561 201.964 246.623 200.659 246.623H119.405C119.24 246.623 119.075 246.61 118.91 246.585C117.618 246.332 116.782 245.093 117.035 243.803L124.333 206.378C124.485 205.214 125.486 204.316 126.69 204.316H193.272C194.4 204.291 195.413 205.088 195.642 206.226L193.31 206.694Z" fill="white"/>
</g>
</g>
<defs>
<filter id="filter0_d" x="0" y="0.000732422" width="320" height="293" filterUnits="userSpaceOnUse" color-interpolation-filters="sRGB">
<feFlood flood-opacity="0" result="BackgroundImageFix"/>
<feColorMatrix in="SourceAlpha" type="matrix" values="0 0 0 0 0 0 0 0 0 0 0 0 0 0 0 0 0 0 127 0"/>
<feOffset dy="4"/>
<feGaussianBlur stdDeviation="20"/>
<feColorMatrix type="matrix" values="0 0 0 0 0.988235 0 0 0 0 1 0 0 0 0 0.172549 0 0 0 0.6 0"/>
<feBlend mode="normal" in2="BackgroundImageFix" result="effect1_dropShadow"/>
<feBlend mode="normal" in="SourceGraphic" in2="effect1_dropShadow" result="shape"/>
</filter>
<clipPath id="clip0">
<rect x="40" y="36.0007" width="240" height="213" fill="white"/>
</clipPath>
</defs>
</svg>
