<svg width="93" height="93" viewBox="0 0 93 93" fill="none" xmlns="http://www.w3.org/2000/svg">
<path d="M91.6374 45.1378H69.7029V42.0383H75.6209C76.3733 42.0383 76.9832 41.4283 76.9832 40.676C76.9832 39.9236 76.3733 39.3137 75.6209 39.3137H69.7029V36.214H73.8116C75.3423 36.214 76.7814 35.618 77.8636 34.5356L86.8232 25.576C87.407 25.8669 88.0542 26.0216 88.7255 26.0216C89.8673 26.0216 90.9406 25.577 91.748 24.7698C92.5554 23.9624 93.0001 22.8891 93.0001 21.7473C93.0001 20.6055 92.5554 19.5322 91.748 18.7248C90.9408 17.9174 89.8673 17.4727 88.7255 17.4727C87.5837 17.4727 86.5104 17.9174 85.703 18.7246C84.8956 19.532 84.451 20.6053 84.451 21.7471C84.451 22.4184 84.6057 23.0656 84.8966 23.6494L75.937 32.609C75.3694 33.1766 74.6145 33.4894 73.8114 33.4894H69.7027V30.4836C69.7027 26.5209 66.4788 23.2972 62.5163 23.2972H59.5106V11.2372C61.2013 10.667 62.4226 9.06734 62.4226 7.18665C62.4226 4.82969 60.505 2.9123 58.1483 2.9123C55.7915 2.9123 53.8739 4.82987 53.8739 7.18665C53.8739 9.06734 55.0953 10.6669 56.786 11.2372V23.297H53.6865V17.379C53.6865 16.6267 53.0765 16.0167 52.3242 16.0167C51.5718 16.0167 50.9619 16.6267 50.9619 17.379V23.297H47.8622V1.36254C47.8622 0.610191 47.2522 0.000244141 46.4999 0.000244141C45.7475 0.000244141 45.1376 0.610191 45.1376 1.36254V23.297H42.0381V17.379C42.0381 16.6267 41.4281 16.0167 40.6758 16.0167C39.9234 16.0167 39.3135 16.6267 39.3135 17.379V23.297H36.214V19.1885C36.214 17.6578 35.6178 16.2187 34.5354 15.1365L25.5728 6.17382C26.3645 4.57521 26.0992 2.58189 24.7697 1.25229C23.103 -0.414258 20.3913 -0.414076 18.7248 1.25229C17.0582 2.91883 17.0582 5.63054 18.7248 7.29726C19.5581 8.13045 20.6527 8.54713 21.7473 8.54713C22.399 8.54713 23.0496 8.39582 23.6463 8.1003L32.609 17.0631C33.1768 17.6308 33.4894 18.3857 33.4894 19.1885V23.297H30.4836C29.876 23.297 29.2717 23.3733 28.6875 23.5235C27.959 23.711 27.5203 24.4537 27.7078 25.1824C27.8952 25.9112 28.6381 26.3498 29.3667 26.1622C29.7291 26.069 30.1047 26.0216 30.4834 26.0216H62.5163C64.9766 26.0216 66.9781 28.0233 66.9781 30.4834V62.5165C66.9781 62.8949 66.9309 63.2703 66.8379 63.6323C66.6506 64.3611 67.0895 65.1036 67.818 65.2909C67.9317 65.3201 68.0458 65.3341 68.1583 65.3341C68.7651 65.3341 69.3186 64.9256 69.4766 64.3106C69.6266 63.7271 69.7027 63.1234 69.7027 62.5163V59.5106H81.7625C82.3327 61.2013 83.9324 62.4226 85.8131 62.4226C88.1701 62.4226 90.0875 60.5052 90.0875 58.1483C90.0875 55.7913 88.1699 53.8739 85.8131 53.8739C83.9324 53.8739 82.3329 55.0953 81.7625 56.786H69.7027V53.6863H75.6207C76.3731 53.6863 76.983 53.0763 76.983 52.324C76.983 51.5716 76.3731 50.9617 75.6207 50.9617H69.7027V47.8624H91.6374C92.3897 47.8624 92.9997 47.2524 92.9997 46.5001C92.9997 45.7477 92.3897 45.1378 91.6374 45.1378ZM87.6295 20.6514C87.9223 20.3586 88.3114 20.1975 88.7253 20.1975C89.1393 20.1975 89.5284 20.3586 89.8212 20.6514C90.114 20.9442 90.2751 21.3333 90.2751 21.7473C90.2751 22.1612 90.114 22.5503 89.8212 22.8431C89.5284 23.1359 89.1393 23.297 88.7253 23.297C88.3114 23.297 87.9223 23.1359 87.6295 22.8431C87.3367 22.5503 87.1756 22.1612 87.1756 21.7473C87.1756 21.3333 87.3367 20.9441 87.6295 20.6514ZM22.8429 5.37079C22.2388 5.97474 21.2556 5.97493 20.6511 5.37061C20.0467 4.76629 20.0467 3.78308 20.6511 3.17894C20.9533 2.87669 21.35 2.72575 21.7471 2.72575C22.144 2.72575 22.5408 2.87688 22.8429 3.17894C23.4472 3.78326 23.4472 4.76648 22.8429 5.37079ZM58.1483 8.7364C57.2938 8.7364 56.5985 8.04108 56.5985 7.18665C56.5985 6.33221 57.2936 5.63689 58.1483 5.63689C59.0029 5.63689 59.698 6.33221 59.698 7.18665C59.698 8.04108 59.0027 8.7364 58.1483 8.7364ZM85.8133 56.5987C86.6679 56.5987 87.363 57.294 87.363 58.1484C87.363 59.0031 86.6677 59.6982 85.8133 59.6982C84.9589 59.6982 84.2635 59.0029 84.2635 58.1484C84.2634 57.2938 84.9587 56.5987 85.8133 56.5987Z" fill="white"/>
<path d="M74.2751 85.703C72.9457 84.3734 70.9522 84.108 69.3536 84.8998L60.3909 75.937C59.8231 75.3693 59.5105 74.6144 59.5105 73.8116V69.7031H62.5163C63.1239 69.7031 63.728 69.6268 64.312 69.4766C65.0405 69.2891 65.4792 68.5464 65.2917 67.8176C65.1043 67.0891 64.3619 66.6504 63.6328 66.8379C63.2706 66.9311 62.895 66.9783 62.5163 66.9783H30.4834C28.023 66.9783 26.0216 64.9766 26.0216 62.5165V30.4836C26.0216 30.1048 26.0688 29.7292 26.162 29.3672C26.3496 28.6386 25.9109 27.8959 25.1824 27.7083C24.4536 27.5206 23.7109 27.9593 23.5235 28.6879C23.3731 29.2717 23.297 29.8758 23.297 30.4836V33.4893H11.237C10.6668 31.7986 9.0671 30.5773 7.1864 30.5773C4.82944 30.5773 2.91205 32.4947 2.91205 34.8516C2.91205 37.2086 4.82962 39.126 7.1864 39.126C9.0671 39.126 10.6666 37.9046 11.237 36.2139H23.2968V39.3136H17.3788C16.6264 39.3136 16.0165 39.9236 16.0165 40.6759C16.0165 41.4283 16.6264 42.0382 17.3788 42.0382H23.2968V45.1377H1.3623C0.609947 45.1377 0 45.7477 0 46.5C0 47.2524 0.609947 47.8623 1.3623 47.8623H23.2968V50.9618H17.3788C16.6264 50.9618 16.0165 51.5718 16.0165 52.3241C16.0165 53.0765 16.6264 53.6864 17.3788 53.6864H23.2968V56.7861H19.1881C17.6574 56.7861 16.2183 57.3821 15.1361 58.4645L6.17648 67.424C5.59269 67.1332 4.94551 66.9785 4.27417 66.9785C3.13238 66.9785 2.05907 67.4231 1.25168 68.2303C0.444654 69.0377 0 70.1112 0 71.2528C0 72.3944 0.444654 73.4679 1.25204 74.2753C2.05925 75.0827 3.13274 75.5272 4.27453 75.5272C5.41632 75.5272 6.48963 75.0825 7.29702 74.2753C8.10441 73.4679 8.54906 72.3946 8.54906 71.2528C8.54906 70.5815 8.39431 69.9343 8.1035 69.3505L17.0631 60.3909C17.6307 59.8233 18.3856 59.5105 19.1886 59.5105H23.2973V62.5163C23.2973 66.479 26.5212 69.7027 30.4837 69.7027H33.4895V81.7625C31.7988 82.3327 30.5774 83.9324 30.5774 85.8131C30.5774 88.17 32.495 90.0874 34.8518 90.0874C37.2086 90.0874 39.1261 88.1699 39.1261 85.8131C39.1261 83.9324 37.9048 82.3329 36.2141 81.7625V69.7027H39.3136V75.6207C39.3136 76.3731 39.9235 76.983 40.6759 76.983C41.4282 76.983 42.0382 76.3731 42.0382 75.6207V69.7027H45.1375V91.6375C45.1375 92.3899 45.7475 92.9998 46.4998 92.9998C47.2522 92.9998 47.8621 92.3899 47.8621 91.6375V69.7031H50.9616V75.6211C50.9616 76.3734 51.5716 76.9834 52.3239 76.9834C53.0763 76.9834 53.6862 76.3734 53.6862 75.6211V69.7031H56.7857V73.8116C56.7857 75.3423 57.3819 76.7814 58.4642 77.8636L67.4269 86.8263C66.6351 88.4249 66.9005 90.4182 68.2301 91.7478C69.0633 92.5812 70.158 92.9977 71.2526 92.9977C72.3472 92.9977 73.4419 92.5812 74.2751 91.7478C75.9416 90.0813 75.9416 87.3696 74.2751 85.703ZM7.1864 36.4014C6.33178 36.4014 5.63665 35.7061 5.63665 34.8516C5.63665 33.997 6.33197 33.3019 7.1864 33.3019C8.04083 33.3019 8.73615 33.9972 8.73615 34.8516C8.73633 35.7063 8.04102 36.4014 7.1864 36.4014ZM5.37018 72.3487C5.07738 72.6415 4.68831 72.8026 4.27435 72.8026C3.86039 72.8026 3.47132 72.6415 3.17852 72.3487C2.88571 72.0559 2.7246 71.6668 2.7246 71.2528C2.7246 70.8389 2.88571 70.4498 3.17852 70.157C3.47132 69.8642 3.86039 69.7031 4.27435 69.7031C4.68831 69.7031 5.07738 69.8642 5.37018 70.157C5.66299 70.4498 5.8241 70.8389 5.8241 71.2528C5.8241 71.6668 5.66299 72.056 5.37018 72.3487ZM36.4012 85.8134C36.4012 86.6679 35.706 87.3632 34.8514 87.3632C33.9968 87.3632 33.3017 86.6679 33.3017 85.8134C33.3017 84.959 33.997 84.2637 34.8514 84.2637C35.7059 84.2637 36.4012 84.959 36.4012 85.8134ZM72.3486 89.8213C71.7443 90.4256 70.7611 90.4255 70.1568 89.8213C69.5525 89.217 69.5525 88.2338 70.1568 87.6297C70.459 87.3276 70.8559 87.1765 71.2528 87.1765C71.6497 87.1765 72.0466 87.3276 72.3486 87.6297C72.9528 88.2338 72.9528 89.217 72.3486 89.8213Z" fill="white"/>
<path d="M60.9665 42.8601C60.9665 39.9466 58.8355 37.4787 55.9182 36.6767C56.0045 36.3205 56.0524 35.9542 56.0524 35.5798C56.0524 32.8214 53.6041 30.5773 50.595 30.5773C48.965 30.5773 47.5008 31.2364 46.5 32.2783C45.4991 31.2364 44.0348 30.5773 42.4049 30.5773C39.3957 30.5773 36.9475 32.8214 36.9475 35.5798C36.9475 35.9542 36.9955 36.3205 37.0818 36.6767C34.1644 37.4785 32.0334 39.9464 32.0334 42.8601C32.0334 44.284 32.5373 45.6274 33.4682 46.7369C32.558 47.9152 32.0334 49.3456 32.0334 50.8684C32.0331 53.1847 33.2708 55.3475 35.3093 56.6891C35.3093 56.6902 35.3093 56.6913 35.3093 56.6924C35.3093 59.8522 38.1249 62.4229 41.5859 62.4229C43.5748 62.4229 45.3493 61.573 46.5 60.2511C47.6507 61.573 49.4251 62.4229 51.4141 62.4229C54.7448 62.4229 57.4765 60.0416 57.6774 57.046C59.7003 55.8723 60.9665 53.8163 60.9665 51.5963C60.9665 49.9633 60.2703 48.4056 59.072 47.2282C60.2701 46.0508 60.9665 44.4929 60.9665 42.8601ZM56.1451 48.4328C57.4578 49.1256 58.2414 50.3083 58.2414 51.5963C58.2414 52.5566 57.7951 53.4726 57.0413 54.1576C56.3251 52.8314 55.0592 51.7757 53.4599 51.2733C52.7424 51.0479 51.9775 51.447 51.7519 52.1646C51.5263 52.8825 51.9256 53.6472 52.6432 53.8726C54.032 54.3091 54.9653 55.4423 54.9653 56.6925C54.9653 58.35 53.372 59.6985 51.4133 59.6985C49.4549 59.6985 47.8615 58.35 47.8615 56.6925V47.9562C47.8615 46.2988 49.4549 44.9504 51.4133 44.9504C52.1657 44.9504 52.7756 44.3405 52.7756 43.5881C52.7756 42.8358 52.1657 42.2258 51.4133 42.2258C50.0957 42.2258 48.8722 42.5993 47.8615 43.2352V41.4951C47.8615 40.7428 47.2516 40.1328 46.4992 40.1328C45.7469 40.1328 45.1369 40.7428 45.1369 41.4951V49.058C44.6785 48.7703 44.1757 48.5322 43.6319 48.3613C42.9137 48.1357 42.1493 48.5349 41.9239 49.2524C41.6983 49.9702 42.0974 50.7349 42.815 50.9605C44.2039 51.397 45.1369 52.5303 45.1369 53.7803V56.6924C45.1369 58.3498 43.5436 59.6983 41.5852 59.6983C39.6265 59.6983 38.0332 58.3498 38.0332 56.6924C38.0332 55.982 38.3344 55.2914 38.8811 54.7479C39.4147 54.2175 39.4173 53.3549 38.8869 52.8213C38.3565 52.2876 37.4941 52.2851 36.9604 52.8154C36.634 53.14 36.353 53.4946 36.1194 53.8715C35.2592 53.0578 34.757 51.9872 34.757 50.8681C34.757 48.8497 36.341 47.0765 38.6092 46.5561C39.3425 46.3879 39.8006 45.657 39.6324 44.9237C39.4642 44.1903 38.7331 43.7324 38 43.9006C37.0869 44.11 36.2462 44.4596 35.5008 44.9187C35.0174 44.3116 34.7571 43.6007 34.7571 42.8598C34.7577 40.8107 36.7001 39.1425 39.0947 39.1267C39.1069 39.1271 39.119 39.1287 39.131 39.1287C39.442 39.1287 39.7546 39.0228 40.0105 38.8061C40.5327 38.364 40.6375 37.6138 40.287 37.0495C40.2766 37.0328 40.2672 37.0157 40.2563 36.9995C40.2507 36.9913 40.2439 36.9835 40.2381 36.9754C40.2171 36.9457 40.1954 36.9167 40.172 36.8887C40.1713 36.8878 40.1707 36.8869 40.17 36.8862C39.9428 36.6175 39.6716 36.1729 39.6716 35.5796C39.6716 34.3236 40.8977 33.3017 42.4044 33.3017C43.9111 33.3017 45.1371 34.3236 45.1371 35.5796C45.1371 36.332 45.7471 36.9419 46.4994 36.9419C47.2518 36.9419 47.8617 36.332 47.8617 35.5796C47.8617 34.3236 49.0878 33.3017 50.5945 33.3017C52.1012 33.3017 53.3273 34.3236 53.3273 35.5796C53.3273 35.9153 53.2394 36.2016 53.1229 36.437C52.3481 36.5102 51.5986 36.6974 50.8871 36.9975C50.1938 37.2898 49.8689 38.0888 50.1611 38.7821C50.4534 39.4753 51.2524 39.8006 51.9457 39.5081C52.5346 39.2598 53.1682 39.1321 53.829 39.1271C53.842 39.1274 53.8549 39.1287 53.868 39.1287C53.8802 39.1287 53.8922 39.1271 53.9043 39.1267C56.2989 39.1423 58.2414 40.8107 58.2414 42.8598C58.2414 44.1478 57.4578 45.3302 56.1451 46.0232C55.6982 46.259 55.4185 46.7227 55.4185 47.228C55.4185 47.7333 55.6982 48.1971 56.1451 48.4328Z" fill="white"/>
</svg>
