<svg width="317" height="335" viewBox="0 0 317 335" fill="none" xmlns="http://www.w3.org/2000/svg">
<g filter="url(#filter0_d)">
<path d="M181.579 75.6028C156.323 75.6028 135.777 97.3688 135.777 124.125C135.777 150.88 156.323 172.646 181.579 172.646C206.835 172.646 227.381 150.88 227.381 124.125C227.381 97.3688 206.835 75.6028 181.579 75.6028ZM181.579 164.559C160.533 164.559 143.411 146.42 143.411 124.125C143.411 101.829 160.533 83.6897 181.579 83.6897C202.625 83.6897 219.747 101.829 219.747 124.125C219.747 146.42 202.625 164.559 181.579 164.559Z" fill="white"/>
<path d="M185.396 95.8201H177.762V103.907H162.495V128.168H193.029V136.255H162.495V144.342H177.762V152.429H185.396V144.342H200.663V120.081H170.128V111.994H200.663V103.907H185.396V95.8201Z" fill="white"/>
<path d="M271.313 51.8634C214.198 85.8896 185.926 42.8504 184.754 41.0106L181.59 36.0007L178.411 41.0026C177.231 42.8504 148.96 85.8976 91.8449 51.8634L86.1578 48.4709V152.43C86.1578 152.935 86.2227 163.8 90.3411 179.938L40.3557 171.996V233.728L110.288 226.321C126.651 252.421 150.036 273.678 179.873 289.484L181.579 290.386L183.285 289.48C275.927 240.412 277 153.303 277 152.43V48.4709L271.313 51.8634ZM47.9894 181.385L116.693 192.303V217.506L47.9894 224.784V181.385ZM172.167 200.952C176.8 200.952 180.663 197.385 181.438 192.711L196.846 192.06C197.896 192.06 198.449 192.788 198.636 193.103C198.865 193.483 199.182 194.256 198.766 195.198C193.8 206.439 176.655 230.777 124.326 217.967V190.099C125.498 188.587 129.441 184.778 139.594 184.778H172.167C173.147 184.778 173.945 185.623 173.945 186.662V190.98C173.945 192.02 173.147 192.865 172.167 192.865H147.227V200.952H172.167ZM269.366 152.426C269.366 153.242 268.16 234.428 181.579 281.337C155.14 267.015 134.17 248.184 119.013 225.395L120.235 225.265C179.85 240.792 199.846 211.841 205.686 198.623C207.098 195.428 206.873 191.741 205.083 188.765C203.285 185.768 200.213 183.977 196.709 183.977C196.709 183.977 196.705 183.977 196.701 183.977L181.388 184.624C180.491 180.099 176.697 176.691 172.167 176.691H139.594C127.414 176.691 121.429 181.373 118.811 184.462L98.6274 181.256C93.8907 164.338 93.7915 152.547 93.7915 152.43V62.1097C142.674 87.9558 172.277 60.6702 181.579 49.6638C190.877 60.6702 220.476 87.9517 269.366 62.1097V152.426Z" fill="white"/>
</g>
<defs>
<filter id="filter0_d" x="0.355713" y="0.000732422" width="316.644" height="334.385" filterUnits="userSpaceOnUse" color-interpolation-filters="sRGB">
<feFlood flood-opacity="0" result="BackgroundImageFix"/>
<feColorMatrix in="SourceAlpha" type="matrix" values="0 0 0 0 0 0 0 0 0 0 0 0 0 0 0 0 0 0 127 0"/>
<feOffset dy="4"/>
<feGaussianBlur stdDeviation="20"/>
<feColorMatrix type="matrix" values="0 0 0 0 0 0 0 0 0 0.760784 0 0 0 0 0.482353 0 0 0 0.65 0"/>
<feBlend mode="normal" in2="BackgroundImageFix" result="effect1_dropShadow"/>
<feBlend mode="normal" in="SourceGraphic" in2="effect1_dropShadow" result="shape"/>
</filter>
</defs>
</svg>
