<svg width="80" height="80" viewBox="0 0 80 80" fill="none" xmlns="http://www.w3.org/2000/svg">
<path d="M72.483 28.7744C72.4836 28.7589 72.4853 28.7437 72.4853 28.728V27.4756C72.4853 24.0658 69.7112 21.2916 66.3014 21.2916H59.0491C57.1679 18.9281 54.3053 17.5343 51.272 17.5343C48.2387 17.5343 45.3763 18.9281 43.495 21.2916H36.5049C34.6237 18.9281 31.7611 17.5343 28.7278 17.5343C25.6946 17.5343 22.8321 18.9281 20.9508 21.2916H13.6986C10.2888 21.2916 7.51468 24.0658 7.51468 27.4756V28.728C7.51468 28.7437 7.5164 28.7589 7.51703 28.7744C2.95656 32.1893 0 37.6347 0 43.7574C0 54.0733 8.39249 62.4658 18.7084 62.4658C29.0243 62.4658 37.4168 54.0733 37.4168 43.7574C37.4168 43.101 37.3825 42.4525 37.3162 41.8133C38.1284 42.2062 39.0389 42.4267 40 42.4267C40.9611 42.4267 41.8716 42.2061 42.6838 41.8133C42.6175 42.4525 42.5832 43.101 42.5832 43.7574C42.5832 54.0733 50.9757 62.4658 61.2916 62.4658C71.6075 62.4658 80 54.0733 80 43.7574C80 37.6347 77.0434 32.1893 72.483 28.7744ZM51.272 19.8826C52.8651 19.8826 54.3955 20.3891 55.6645 21.2916H46.8797C48.1486 20.3891 49.6789 19.8826 51.272 19.8826ZM28.728 19.8826C30.3211 19.8826 31.8514 20.3891 33.1205 21.2916H24.3357C25.6045 20.3891 27.1349 19.8826 28.728 19.8826ZM18.7084 60.1175C9.68736 60.1175 2.34834 52.7785 2.34834 43.7574C2.34834 34.7363 9.68736 27.3973 18.7084 27.3973C27.7295 27.3973 35.0685 34.7363 35.0685 43.7574C35.0685 52.7785 27.7295 60.1175 18.7084 60.1175ZM36.1644 36.2427C36.1644 34.1278 37.8851 32.4071 40 32.4071C42.1149 32.4071 43.8356 34.1278 43.8356 36.2427C43.8356 38.3576 42.1149 40.0783 40 40.0783C37.8851 40.0783 36.1644 38.3576 36.1644 36.2427ZM40 30.0588C37.5358 30.0588 35.4041 31.508 34.4111 33.5986C31.0733 28.4572 25.2817 25.049 18.7084 25.049C15.513 25.049 12.5025 25.8549 9.86834 27.2732C9.97401 25.252 11.6515 23.64 13.6986 23.64H21.5198C21.5198 23.64 21.5202 23.64 21.5203 23.64H35.9169C35.9173 23.64 35.9178 23.64 35.9181 23.64C35.9184 23.64 35.9187 23.64 35.9192 23.64H44.064C44.064 23.64 44.0643 23.64 44.0645 23.64H58.4611C58.4615 23.64 58.462 23.64 58.4623 23.64C58.4626 23.64 58.4629 23.64 58.4634 23.64H66.3014C68.3485 23.64 70.026 25.252 70.1317 27.2732C67.4975 25.8549 64.487 25.049 61.2916 25.049C54.7183 25.049 48.9267 28.4572 45.5889 33.5986C44.5959 31.508 42.4642 30.0588 40 30.0588ZM61.2916 60.1175C52.2705 60.1175 44.9315 52.7785 44.9315 43.7574C44.9315 34.7363 52.2705 27.3973 61.2916 27.3973C70.3126 27.3973 77.6517 34.7363 77.6517 43.7574C77.6517 52.7785 70.3126 60.1175 61.2916 60.1175Z" fill="white"/>
<path d="M61.2916 30.0587C53.7381 30.0587 47.593 36.2038 47.593 43.7573C47.593 51.3108 53.7381 57.456 61.2916 57.456C68.8451 57.456 74.9903 51.3108 74.9903 43.7573C74.9903 36.2038 68.8451 30.0587 61.2916 30.0587ZM61.2916 55.1076C55.033 55.1076 49.9414 50.016 49.9414 43.7573C49.9414 37.4987 55.033 32.4071 61.2916 32.4071C67.5503 32.4071 72.6419 37.4987 72.6419 43.7573C72.6419 50.016 67.5503 55.1076 61.2916 55.1076Z" fill="white"/>
<path d="M18.7084 30.0587C11.1549 30.0587 5.00977 36.2038 5.00977 43.7573C5.00977 51.3108 11.1549 57.456 18.7084 57.456C26.2619 57.456 32.407 51.3108 32.407 43.7573C32.407 36.2038 26.2619 30.0587 18.7084 30.0587ZM18.7084 55.1076C12.4498 55.1076 7.3581 50.016 7.3581 43.7573C7.3581 37.4987 12.4498 32.4071 18.7084 32.4071C24.967 32.4071 30.0587 37.4987 30.0587 43.7573C30.0587 50.016 24.967 55.1076 18.7084 55.1076Z" fill="white"/>
<path d="M61.2916 35.0686C60.6431 35.0686 60.1174 35.5943 60.1174 36.2428C60.1174 36.8912 60.6431 37.4169 61.2916 37.4169C64.7878 37.4169 67.6321 40.2612 67.6321 43.7574C67.6321 44.4059 68.1578 44.9316 68.8063 44.9316C69.4547 44.9316 69.9804 44.4059 69.9804 43.7574C69.9804 38.9664 66.0827 35.0686 61.2916 35.0686Z" fill="white"/>
<path d="M18.7083 35.0686C18.0599 35.0686 17.5342 35.5943 17.5342 36.2428C17.5342 36.8912 18.0599 37.4169 18.7083 37.4169C22.2046 37.4169 25.0489 40.2612 25.0489 43.7574C25.0489 44.4059 25.5746 44.9316 26.223 44.9316C26.8715 44.9316 27.3972 44.4059 27.3972 43.7574C27.3972 38.9664 23.4994 35.0686 18.7083 35.0686Z" fill="white"/>
</svg>
