<svg width="93" height="93" viewBox="0 0 93 93" fill="none" xmlns="http://www.w3.org/2000/svg">
<path d="M84.2615 33.4501C84.2622 33.4321 84.2642 33.4145 84.2642 33.3963V31.9403C84.2642 27.9764 81.0392 24.7515 77.0753 24.7515H68.6446C66.4577 22.0039 63.1299 20.3835 59.6037 20.3835C56.0775 20.3835 52.7499 22.0039 50.5629 24.7515H42.4369C40.2501 22.0039 36.9223 20.3835 33.3961 20.3835C29.8699 20.3835 26.5423 22.0039 24.3553 24.7515H15.9247C11.9608 24.7515 8.73581 27.9764 8.73581 31.9403V33.3963C8.73581 33.4145 8.73781 33.4321 8.73854 33.4501C3.437 37.42 0 43.7502 0 50.8679C0 62.8602 9.75626 72.6164 21.7485 72.6164C33.7408 72.6164 43.4971 62.8602 43.4971 50.8679C43.4971 50.1048 43.4572 49.351 43.38 48.6079C44.3242 49.0647 45.3827 49.3209 46.5 49.3209C47.6173 49.3209 48.6758 49.0645 49.62 48.6079C49.5428 49.351 49.5029 50.1048 49.5029 50.8679C49.5029 62.8602 59.2592 72.6164 71.2515 72.6164C83.2437 72.6164 93 62.8602 93 50.8679C93 43.7502 89.563 37.42 84.2615 33.4501ZM59.6037 23.1135C61.4557 23.1135 63.2347 23.7022 64.71 24.7515H54.4976C55.9727 23.7022 57.7517 23.1135 59.6037 23.1135ZM33.3963 23.1135C35.2483 23.1135 37.0273 23.7022 38.5025 24.7515H28.2902C29.7653 23.7022 31.5443 23.1135 33.3963 23.1135ZM21.7485 69.8865C11.2616 69.8865 2.72994 61.3549 2.72994 50.8679C2.72994 40.3809 11.2616 31.8493 21.7485 31.8493C32.2355 31.8493 40.7671 40.3809 40.7671 50.8679C40.7671 61.3549 32.2355 69.8865 21.7485 69.8865ZM42.0411 42.1321C42.0411 39.6735 44.0414 37.6732 46.5 37.6732C48.9586 37.6732 50.9589 39.6735 50.9589 42.1321C50.9589 44.5907 48.9586 46.591 46.5 46.591C44.0414 46.591 42.0411 44.5907 42.0411 42.1321ZM46.5 34.9432C43.6354 34.9432 41.1573 36.628 40.0029 39.0583C36.1228 33.0814 29.39 29.1194 21.7485 29.1194C18.0338 29.1194 14.5342 30.0563 11.4719 31.705C11.5948 29.3554 13.5449 27.4814 15.9247 27.4814H25.0168C25.0168 27.4814 25.0172 27.4814 25.0174 27.4814H41.7534C41.7539 27.4814 41.7545 27.4814 41.7548 27.4814C41.7552 27.4814 41.7555 27.4814 41.7561 27.4814H51.2244C51.2244 27.4814 51.2248 27.4814 51.225 27.4814H67.961C67.9615 27.4814 67.9621 27.4814 67.9624 27.4814C67.9628 27.4814 67.9632 27.4814 67.9637 27.4814H77.0753C79.4551 27.4814 81.4052 29.3554 81.5281 31.705C78.4658 30.0563 74.9662 29.1194 71.2515 29.1194C63.61 29.1194 56.8772 33.0814 52.9971 39.0583C51.8427 36.628 49.3646 34.9432 46.5 34.9432ZM71.2515 69.8865C60.7645 69.8865 52.2329 61.3549 52.2329 50.8679C52.2329 40.3809 60.7645 31.8493 71.2515 31.8493C81.7384 31.8493 90.2701 40.3809 90.2701 50.8679C90.2701 61.3549 81.7384 69.8865 71.2515 69.8865Z" fill="white"/>
<path d="M71.2514 34.9432C62.4705 34.9432 55.3268 42.0869 55.3268 50.8679C55.3268 59.6488 62.4705 66.7925 71.2514 66.7925C80.0324 66.7925 87.1761 59.6488 87.1761 50.8679C87.1761 42.0869 80.0324 34.9432 71.2514 34.9432ZM71.2514 64.0626C63.9758 64.0626 58.0567 58.1435 58.0567 50.8679C58.0567 43.5922 63.9758 37.6732 71.2514 37.6732C78.5271 37.6732 84.4461 43.5922 84.4461 50.8679C84.4461 58.1435 78.5271 64.0626 71.2514 64.0626Z" fill="white"/>
<path d="M21.7485 34.9432C12.9676 34.9432 5.82385 42.0869 5.82385 50.8679C5.82385 59.6488 12.9676 66.7925 21.7485 66.7925C30.5295 66.7925 37.6732 59.6488 37.6732 50.8679C37.6732 42.0869 30.5295 34.9432 21.7485 34.9432ZM21.7485 64.0626C14.4729 64.0626 8.55379 58.1435 8.55379 50.8679C8.55379 43.5922 14.4729 37.6732 21.7485 37.6732C29.0242 37.6732 34.9432 43.5922 34.9432 50.8679C34.9432 58.1435 29.0242 64.0626 21.7485 64.0626Z" fill="white"/>
<path d="M71.2514 40.7671C70.4976 40.7671 69.8865 41.3782 69.8865 42.1321C69.8865 42.8859 70.4976 43.497 71.2514 43.497C75.3158 43.497 78.6223 46.8035 78.6223 50.8679C78.6223 51.6217 79.2334 52.2328 79.9873 52.2328C80.7411 52.2328 81.3522 51.6217 81.3522 50.8679C81.3522 45.2982 76.8211 40.7671 71.2514 40.7671Z" fill="white"/>
<path d="M21.7485 40.7671C20.9947 40.7671 20.3835 41.3782 20.3835 42.1321C20.3835 42.8859 20.9947 43.497 21.7485 43.497C25.8129 43.497 29.1194 46.8035 29.1194 50.8679C29.1194 51.6217 29.7305 52.2328 30.4843 52.2328C31.2382 52.2328 31.8493 51.6217 31.8493 50.8679C31.8493 45.2982 27.3181 40.7671 21.7485 40.7671Z" fill="white"/>
</svg>
